<svg xmlns="http://www.w3.org/2000/svg" width="600" height="450" viewBox="0 0 600 450"><rect x="0" y="0" width="30" height="30" fill="#000000" stroke="gray" stroke-width="1" /><rect x="30" y="0" width="30" height="30" fill="#90db8b" stroke="gray" stroke-width="1" /><text x="45" y="15" text-anchor="middle" dominant-baseline="middle" font-size="12">1</text><rect x="60" y="0" width="30" height="30" fill="#90db8b" stroke="gray" stroke-width="1" /><text x="75" y="15" text-anchor="middle" dominant-baseline="middle" font-size="12">3</text><rect x="90" y="0" width="30" height="30" fill="#90db8b" stroke="gray" stroke-width="1" /><text x="105" y="15" text-anchor="middle" dominant-baseline="middle" font-size="12">4</text><rect x="120" y="0" width="30" height="30" fill="#90db8b" stroke="gray" stroke-width="1" /><text x="135" y="15" text-anchor="middle" dominant-baseline="middle" font-size="12">2</text><rect x="150" y="0" width="30" height="30" fill="#90db8b" stroke="gray" stroke-width="1" /><text x="165" y="15" text-anchor="middle" dominant-baseline="middle" font-size="12">4</text><rect x="180" y="0" width="30" height="30" fill="#8ecae6" stroke="gray" stroke-width="1" /><text x="195" y="15" text-anchor="middle" dominant-baseline="middle" font-size="12">5</text><rect x="210" y="0" width="30" height="30" fill="#000000" stroke="gray" stroke-width="1" /><rect x="240" y="0" width="30" height="30" fill="#8ecae6" stroke="gray" stroke-width="1" /><text x="255" y="15" text-anchor="middle" dominant-baseline="middle" font-size="12">5</text><rect x="270" y="0" width="30" height="30" fill="#8ecae6" stroke="gray" stroke-width="1" /><text x="285" y="15" text-anchor="middle" dominant-baseline="middle" font-size="12">5</text><rect x="300" y="0" width="30" height="30" fill="#8ecae6" stroke="gray" stroke-width="1" /><text x="315" y="15" text-anchor="middle" dominant-baseline="middle" font-size="12">4</text><rect x="330" y="0" width="30" height="30" fill="#8ecae6" stroke="gray" stroke-width="1" /><text x="345" y="15" text-anchor="middle" dominant-baseline="middle" font-size="12">5</text><rect x="360" y="0" width="30" height="30" fill="#8ecae6" stroke="gray" stroke-width="1" /><text x="375" y="15" text-anchor="middle" dominant-baseline="middle" font-size="12">5</text><rect x="390" y="0" width="30" height="30" fill="#8ecae6" stroke="gray" stroke-width="1" /><text x="405" y="15" text-anchor="middle" dominant-baseline="middle" font-size="12">3</text><rect x="420" y="0" width="30" height="30" fill="#8ecae6" stroke="gray" stroke-width="1" /><text x="435" y="15" text-anchor="middle" dominant-baseline="middle" font-size="12">5</text><rect x="450" y="0" width="30" height="30" fill="#8ecae6" stroke="gray" stroke-width="1" /><text x="465" y="15" text-anchor="middle" dominant-baseline="middle" font-size="12">2</text><rect x="480" y="0" width="30" height="30" fill="#8ecae6" stroke="gray" stroke-width="1" /><text x="495" y="15" text-anchor="middle" dominant-baseline="middle" font-size="12">4</text><rect x="510" y="0" width="30" height="30" fill="#8ecae6" stroke="gray" stroke-width="1" /><text x="525" y="15" text-anchor="middle" dominant-baseline="middle" font-size="12">4</text><rect x="540" y="0" width="30" height="30" fill="#8ecae6" stroke="gray" stroke-width="1" /><text x="555" y="15" text-anchor="middle" dominant-baseline="middle" font-size="12">1</text><rect x="570" y="0" width="30" height="30" fill="#8ecae6" stroke="gray" stroke-width="1" /><text x="585" y="15" text-anchor="middle" dominant-baseline="middle" font-size="12">5</text><rect x="0" y="30" width="30" height="30" fill="#8ecae6" stroke="gray" stroke-width="1" /><text x="15" y="45" text-anchor="middle" dominant-baseline="middle" font-size="12">2</text><rect x="30" y="30" width="30" height="30" fill="#8ecae6" stroke="gray" stroke-width="1" /><text x="45" y="45" text-anchor="middle" dominant-baseline="middle" font-size="12">3</text><rect x="60" y="30" width="30" height="30" fill="#000000" stroke="gray" stroke-width="1" /><rect x="90" y="30" width="30" height="30" fill="#8ecae6" stroke="gray" stroke-width="1" /><text x="105" y="45" text-anchor="middle" dominant-baseline="middle" font-size="12">3</text><rect x="120" y="30" width="30" height="30" fill="#8ecae6" stroke="gray" stroke-width="1" /><text x="135" y="45" text-anchor="middle" dominant-baseline="middle" font-size="12">5</text><rect x="150" y="30" width="30" height="30" fill="#90db8b" stroke="gray" stroke-width="1" /><text x="165" y="45" text-anchor="middle" dominant-baseline="middle" font-size="12">4</text><rect x="180" y="30" width="30" height="30" fill="#90db8b" stroke="gray" stroke-width="1" /><text x="195" y="45" text-anchor="middle" dominant-baseline="middle" font-size="12">4</text><rect x="210" y="30" width="30" height="30" fill="#90db8b" stroke="gray" stroke-width="1" /><text x="225" y="45" text-anchor="middle" dominant-baseline="middle" font-size="12">1</text><rect x="240" y="30" width="30" height="30" fill="#90db8b" stroke="gray" stroke-width="1" /><text x="255" y="45" text-anchor="middle" dominant-baseline="middle" font-size="12">1</text><rect x="270" y="30" width="30" height="30" fill="#90db8b" stroke="gray" stroke-width="1" /><text x="285" y="45" text-anchor="middle" dominant-baseline="middle" font-size="12">2</text><rect x="300" y="30" width="30" height="30" fill="#8ecae6" stroke="gray" stroke-width="1" /><text x="315" y="45" text-anchor="middle" dominant-baseline="middle" font-size="12">2</text><rect x="330" y="30" width="30" height="30" fill="#000000" stroke="gray" stroke-width="1" /><rect x="360" y="30" width="30" height="30" fill="#8ecae6" stroke="gray" stroke-width="1" /><text x="375" y="45" text-anchor="middle" dominant-baseline="middle" font-size="12">1</text><rect x="390" y="30" width="30" height="30" fill="#000000" stroke="gray" stroke-width="1" /><rect x="420" y="30" width="30" height="30" fill="#8ecae6" stroke="gray" stroke-width="1" /><text x="435" y="45" text-anchor="middle" dominant-baseline="middle" font-size="12">5</text><rect x="450" y="30" width="30" height="30" fill="#8ecae6" stroke="gray" stroke-width="1" /><text x="465" y="45" text-anchor="middle" dominant-baseline="middle" font-size="12">5</text><rect x="480" y="30" width="30" height="30" fill="#8ecae6" stroke="gray" stroke-width="1" /><text x="495" y="45" text-anchor="middle" dominant-baseline="middle" font-size="12">3</text><rect x="510" y="30" width="30" height="30" fill="#8ecae6" stroke="gray" stroke-width="1" /><text x="525" y="45" text-anchor="middle" dominant-baseline="middle" font-size="12">4</text><rect x="540" y="30" width="30" height="30" fill="#8ecae6" stroke="gray" stroke-width="1" /><text x="555" y="45" text-anchor="middle" dominant-baseline="middle" font-size="12">4</text><rect x="570" y="30" width="30" height="30" fill="#8ecae6" stroke="gray" stroke-width="1" /><text x="585" y="45" text-anchor="middle" dominant-baseline="middle" font-size="12">2</text><rect x="0" y="60" width="30" height="30" fill="#8ecae6" stroke="gray" stroke-width="1" /><text x="15" y="75" text-anchor="middle" dominant-baseline="middle" font-size="12">3</text><rect x="30" y="60" width="30" height="30" fill="#8ecae6" stroke="gray" stroke-width="1" /><text x="45" y="75" text-anchor="middle" dominant-baseline="middle" font-size="12">3</text><rect x="60" y="60" width="30" height="30" fill="#8ecae6" stroke="gray" stroke-width="1" /><text x="75" y="75" text-anchor="middle" dominant-baseline="middle" font-size="12">1</text><rect x="90" y="60" width="30" height="30" fill="#8ecae6" stroke="gray" stroke-width="1" /><text x="105" y="75" text-anchor="middle" dominant-baseline="middle" font-size="12">2</text><rect x="120" y="60" width="30" height="30" fill="#8ecae6" stroke="gray" stroke-width="1" /><text x="135" y="75" text-anchor="middle" dominant-baseline="middle" font-size="12">1</text><rect x="150" y="60" width="30" height="30" fill="#000000" stroke="gray" stroke-width="1" /><rect x="180" y="60" width="30" height="30" fill="#8ecae6" stroke="gray" stroke-width="1" /><text x="195" y="75" text-anchor="middle" dominant-baseline="middle" font-size="12">4</text><rect x="210" y="60" width="30" height="30" fill="#000000" stroke="gray" stroke-width="1" /><rect x="240" y="60" width="30" height="30" fill="#000000" stroke="gray" stroke-width="1" /><rect x="270" y="60" width="30" height="30" fill="#90db8b" stroke="gray" stroke-width="1" /><text x="285" y="75" text-anchor="middle" dominant-baseline="middle" font-size="12">5</text><rect x="300" y="60" width="30" height="30" fill="#000000" stroke="gray" stroke-width="1" /><rect x="330" y="60" width="30" height="30" fill="#8ecae6" stroke="gray" stroke-width="1" /><text x="345" y="75" text-anchor="middle" dominant-baseline="middle" font-size="12">1</text><rect x="360" y="60" width="30" height="30" fill="#8ecae6" stroke="gray" stroke-width="1" /><text x="375" y="75" text-anchor="middle" dominant-baseline="middle" font-size="12">4</text><rect x="390" y="60" width="30" height="30" fill="#8ecae6" stroke="gray" stroke-width="1" /><text x="405" y="75" text-anchor="middle" dominant-baseline="middle" font-size="12">1</text><rect x="420" y="60" width="30" height="30" fill="#000000" stroke="gray" stroke-width="1" /><rect x="450" y="60" width="30" height="30" fill="#8ecae6" stroke="gray" stroke-width="1" /><text x="465" y="75" text-anchor="middle" dominant-baseline="middle" font-size="12">1</text><rect x="480" y="60" width="30" height="30" fill="#000000" stroke="gray" stroke-width="1" /><rect x="510" y="60" width="30" height="30" fill="#000000" stroke="gray" stroke-width="1" /><rect x="540" y="60" width="30" height="30" fill="#8ecae6" stroke="gray" stroke-width="1" /><text x="555" y="75" text-anchor="middle" dominant-baseline="middle" font-size="12">4</text><rect x="570" y="60" width="30" height="30" fill="#8ecae6" stroke="gray" stroke-width="1" /><text x="585" y="75" text-anchor="middle" dominant-baseline="middle" font-size="12">4</text><rect x="0" y="90" width="30" height="30" fill="#8ecae6" stroke="gray" stroke-width="1" /><text x="15" y="105" text-anchor="middle" dominant-baseline="middle" font-size="12">4</text><rect x="30" y="90" width="30" height="30" fill="#8ecae6" stroke="gray" stroke-width="1" /><text x="45" y="105" text-anchor="middle" dominant-baseline="middle" font-size="12">2</text><rect x="60" y="90" width="30" height="30" fill="#8ecae6" stroke="gray" stroke-width="1" /><text x="75" y="105" text-anchor="middle" dominant-baseline="middle" font-size="12">1</text><rect x="90" y="90" width="30" height="30" fill="#000000" stroke="gray" stroke-width="1" /><rect x="120" y="90" width="30" height="30" fill="#000000" stroke="gray" stroke-width="1" /><rect x="150" y="90" width="30" height="30" fill="#8ecae6" stroke="gray" stroke-width="1" /><text x="165" y="105" text-anchor="middle" dominant-baseline="middle" font-size="12">2</text><rect x="180" y="90" width="30" height="30" fill="#8ecae6" stroke="gray" stroke-width="1" /><text x="195" y="105" text-anchor="middle" dominant-baseline="middle" font-size="12">1</text><rect x="210" y="90" width="30" height="30" fill="#8ecae6" stroke="gray" stroke-width="1" /><text x="225" y="105" text-anchor="middle" dominant-baseline="middle" font-size="12">3</text><rect x="240" y="90" width="30" height="30" fill="#000000" stroke="gray" stroke-width="1" /><rect x="270" y="90" width="30" height="30" fill="#90db8b" stroke="gray" stroke-width="1" /><text x="285" y="105" text-anchor="middle" dominant-baseline="middle" font-size="12">1</text><rect x="300" y="90" width="30" height="30" fill="#8ecae6" stroke="gray" stroke-width="1" /><text x="315" y="105" text-anchor="middle" dominant-baseline="middle" font-size="12">2</text><rect x="330" y="90" width="30" height="30" fill="#8ecae6" stroke="gray" stroke-width="1" /><text x="345" y="105" text-anchor="middle" dominant-baseline="middle" font-size="12">5</text><rect x="360" y="90" width="30" height="30" fill="#8ecae6" stroke="gray" stroke-width="1" /><text x="375" y="105" text-anchor="middle" dominant-baseline="middle" font-size="12">5</text><rect x="390" y="90" width="30" height="30" fill="#8ecae6" stroke="gray" stroke-width="1" /><text x="405" y="105" text-anchor="middle" dominant-baseline="middle" font-size="12">5</text><rect x="420" y="90" width="30" height="30" fill="#000000" stroke="gray" stroke-width="1" /><rect x="450" y="90" width="30" height="30" fill="#8ecae6" stroke="gray" stroke-width="1" /><text x="465" y="105" text-anchor="middle" dominant-baseline="middle" font-size="12">5</text><rect x="480" y="90" width="30" height="30" fill="#8ecae6" stroke="gray" stroke-width="1" /><text x="495" y="105" text-anchor="middle" dominant-baseline="middle" font-size="12">4</text><rect x="510" y="90" width="30" height="30" fill="#8ecae6" stroke="gray" stroke-width="1" /><text x="525" y="105" text-anchor="middle" dominant-baseline="middle" font-size="12">2</text><rect x="540" y="90" width="30" height="30" fill="#8ecae6" stroke="gray" stroke-width="1" /><text x="555" y="105" text-anchor="middle" dominant-baseline="middle" font-size="12">1</text><rect x="570" y="90" width="30" height="30" fill="#000000" stroke="gray" stroke-width="1" /><rect x="0" y="120" width="30" height="30" fill="#8ecae6" stroke="gray" stroke-width="1" /><text x="15" y="135" text-anchor="middle" dominant-baseline="middle" font-size="12">2</text><rect x="30" y="120" width="30" height="30" fill="#8ecae6" stroke="gray" stroke-width="1" /><text x="45" y="135" text-anchor="middle" dominant-baseline="middle" font-size="12">1</text><rect x="60" y="120" width="30" height="30" fill="#8ecae6" stroke="gray" stroke-width="1" /><text x="75" y="135" text-anchor="middle" dominant-baseline="middle" font-size="12">5</text><rect x="90" y="120" width="30" height="30" fill="#000000" stroke="gray" stroke-width="1" /><rect x="120" y="120" width="30" height="30" fill="#8ecae6" stroke="gray" stroke-width="1" /><text x="135" y="135" text-anchor="middle" dominant-baseline="middle" font-size="12">2</text><rect x="150" y="120" width="30" height="30" fill="#8ecae6" stroke="gray" stroke-width="1" /><text x="165" y="135" text-anchor="middle" dominant-baseline="middle" font-size="12">5</text><rect x="180" y="120" width="30" height="30" fill="#000000" stroke="gray" stroke-width="1" /><rect x="210" y="120" width="30" height="30" fill="#000000" stroke="gray" stroke-width="1" /><rect x="240" y="120" width="30" height="30" fill="#8ecae6" stroke="gray" stroke-width="1" /><text x="255" y="135" text-anchor="middle" dominant-baseline="middle" font-size="12">3</text><rect x="270" y="120" width="30" height="30" fill="#90db8b" stroke="gray" stroke-width="1" /><text x="285" y="135" text-anchor="middle" dominant-baseline="middle" font-size="12">1</text><rect x="300" y="120" width="30" height="30" fill="#90db8b" stroke="gray" stroke-width="1" /><text x="315" y="135" text-anchor="middle" dominant-baseline="middle" font-size="12">4</text><rect x="330" y="120" width="30" height="30" fill="#90db8b" stroke="gray" stroke-width="1" /><text x="345" y="135" text-anchor="middle" dominant-baseline="middle" font-size="12">2</text><rect x="360" y="120" width="30" height="30" fill="#90db8b" stroke="gray" stroke-width="1" /><text x="375" y="135" text-anchor="middle" dominant-baseline="middle" font-size="12">1</text><rect x="390" y="120" width="30" height="30" fill="#8ecae6" stroke="gray" stroke-width="1" /><text x="405" y="135" text-anchor="middle" dominant-baseline="middle" font-size="12">5</text><rect x="420" y="120" width="30" height="30" fill="#8ecae6" stroke="gray" stroke-width="1" /><text x="435" y="135" text-anchor="middle" dominant-baseline="middle" font-size="12">3</text><rect x="450" y="120" width="30" height="30" fill="#000000" stroke="gray" stroke-width="1" /><rect x="480" y="120" width="30" height="30" fill="#8ecae6" stroke="gray" stroke-width="1" /><text x="495" y="135" text-anchor="middle" dominant-baseline="middle" font-size="12">4</text><rect x="510" y="120" width="30" height="30" fill="#8ecae6" stroke="gray" stroke-width="1" /><text x="525" y="135" text-anchor="middle" dominant-baseline="middle" font-size="12">2</text><rect x="540" y="120" width="30" height="30" fill="#000000" stroke="gray" stroke-width="1" /><rect x="570" y="120" width="30" height="30" fill="#000000" stroke="gray" stroke-width="1" /><rect x="0" y="150" width="30" height="30" fill="#8ecae6" stroke="gray" stroke-width="1" /><text x="15" y="165" text-anchor="middle" dominant-baseline="middle" font-size="12">3</text><rect x="30" y="150" width="30" height="30" fill="#8ecae6" stroke="gray" stroke-width="1" /><text x="45" y="165" text-anchor="middle" dominant-baseline="middle" font-size="12">1</text><rect x="60" y="150" width="30" height="30" fill="#8ecae6" stroke="gray" stroke-width="1" /><text x="75" y="165" text-anchor="middle" dominant-baseline="middle" font-size="12">1</text><rect x="90" y="150" width="30" height="30" fill="#8ecae6" stroke="gray" stroke-width="1" /><text x="105" y="165" text-anchor="middle" dominant-baseline="middle" font-size="12">3</text><rect x="120" y="150" width="30" height="30" fill="#000000" stroke="gray" stroke-width="1" /><rect x="150" y="150" width="30" height="30" fill="#8ecae6" stroke="gray" stroke-width="1" /><text x="165" y="165" text-anchor="middle" dominant-baseline="middle" font-size="12">2</text><rect x="180" y="150" width="30" height="30" fill="#8ecae6" stroke="gray" stroke-width="1" /><text x="195" y="165" text-anchor="middle" dominant-baseline="middle" font-size="12">3</text><rect x="210" y="150" width="30" height="30" fill="#8ecae6" stroke="gray" stroke-width="1" /><text x="225" y="165" text-anchor="middle" dominant-baseline="middle" font-size="12">1</text><rect x="240" y="150" width="30" height="30" fill="#8ecae6" stroke="gray" stroke-width="1" /><text x="255" y="165" text-anchor="middle" dominant-baseline="middle" font-size="12">5</text><rect x="270" y="150" width="30" height="30" fill="#8ecae6" stroke="gray" stroke-width="1" /><text x="285" y="165" text-anchor="middle" dominant-baseline="middle" font-size="12">2</text><rect x="300" y="150" width="30" height="30" fill="#8ecae6" stroke="gray" stroke-width="1" /><text x="315" y="165" text-anchor="middle" dominant-baseline="middle" font-size="12">5</text><rect x="330" y="150" width="30" height="30" fill="#8ecae6" stroke="gray" stroke-width="1" /><text x="345" y="165" text-anchor="middle" dominant-baseline="middle" font-size="12">4</text><rect x="360" y="150" width="30" height="30" fill="#90db8b" stroke="gray" stroke-width="1" /><text x="375" y="165" text-anchor="middle" dominant-baseline="middle" font-size="12">2</text><rect x="390" y="150" width="30" height="30" fill="#90db8b" stroke="gray" stroke-width="1" /><text x="405" y="165" text-anchor="middle" dominant-baseline="middle" font-size="12">3</text><rect x="420" y="150" width="30" height="30" fill="#90db8b" stroke="gray" stroke-width="1" /><text x="435" y="165" text-anchor="middle" dominant-baseline="middle" font-size="12">4</text><rect x="450" y="150" width="30" height="30" fill="#8ecae6" stroke="gray" stroke-width="1" /><text x="465" y="165" text-anchor="middle" dominant-baseline="middle" font-size="12">5</text><rect x="480" y="150" width="30" height="30" fill="#8ecae6" stroke="gray" stroke-width="1" /><text x="495" y="165" text-anchor="middle" dominant-baseline="middle" font-size="12">2</text><rect x="510" y="150" width="30" height="30" fill="#8ecae6" stroke="gray" stroke-width="1" /><text x="525" y="165" text-anchor="middle" dominant-baseline="middle" font-size="12">2</text><rect x="540" y="150" width="30" height="30" fill="#8ecae6" stroke="gray" stroke-width="1" /><text x="555" y="165" text-anchor="middle" dominant-baseline="middle" font-size="12">4</text><rect x="570" y="150" width="30" height="30" fill="#000000" stroke="gray" stroke-width="1" /><rect x="0" y="180" width="30" height="30" fill="#8ecae6" stroke="gray" stroke-width="1" /><text x="15" y="195" text-anchor="middle" dominant-baseline="middle" font-size="12">3</text><rect x="30" y="180" width="30" height="30" fill="#8ecae6" stroke="gray" stroke-width="1" /><text x="45" y="195" text-anchor="middle" dominant-baseline="middle" font-size="12">4</text><rect x="60" y="180" width="30" height="30" fill="#8ecae6" stroke="gray" stroke-width="1" /><text x="75" y="195" text-anchor="middle" dominant-baseline="middle" font-size="12">2</text><rect x="90" y="180" width="30" height="30" fill="#000000" stroke="gray" stroke-width="1" /><rect x="120" y="180" width="30" height="30" fill="#8ecae6" stroke="gray" stroke-width="1" /><text x="135" y="195" text-anchor="middle" dominant-baseline="middle" font-size="12">5</text><rect x="150" y="180" width="30" height="30" fill="#000000" stroke="gray" stroke-width="1" /><rect x="180" y="180" width="30" height="30" fill="#8ecae6" stroke="gray" stroke-width="1" /><text x="195" y="195" text-anchor="middle" dominant-baseline="middle" font-size="12">1</text><rect x="210" y="180" width="30" height="30" fill="#000000" stroke="gray" stroke-width="1" /><rect x="240" y="180" width="30" height="30" fill="#000000" stroke="gray" stroke-width="1" /><rect x="270" y="180" width="30" height="30" fill="#000000" stroke="gray" stroke-width="1" /><rect x="300" y="180" width="30" height="30" fill="#8ecae6" stroke="gray" stroke-width="1" /><text x="315" y="195" text-anchor="middle" dominant-baseline="middle" font-size="12">3</text><rect x="330" y="180" width="30" height="30" fill="#8ecae6" stroke="gray" stroke-width="1" /><text x="345" y="195" text-anchor="middle" dominant-baseline="middle" font-size="12">3</text><rect x="360" y="180" width="30" height="30" fill="#000000" stroke="gray" stroke-width="1" /><rect x="390" y="180" width="30" height="30" fill="#000000" stroke="gray" stroke-width="1" /><rect x="420" y="180" width="30" height="30" fill="#90db8b" stroke="gray" stroke-width="1" /><text x="435" y="195" text-anchor="middle" dominant-baseline="middle" font-size="12">2</text><rect x="450" y="180" width="30" height="30" fill="#000000" stroke="gray" stroke-width="1" /><rect x="480" y="180" width="30" height="30" fill="#8ecae6" stroke="gray" stroke-width="1" /><text x="495" y="195" text-anchor="middle" dominant-baseline="middle" font-size="12">2</text><rect x="510" y="180" width="30" height="30" fill="#8ecae6" stroke="gray" stroke-width="1" /><text x="525" y="195" text-anchor="middle" dominant-baseline="middle" font-size="12">5</text><rect x="540" y="180" width="30" height="30" fill="#8ecae6" stroke="gray" stroke-width="1" /><text x="555" y="195" text-anchor="middle" dominant-baseline="middle" font-size="12">1</text><rect x="570" y="180" width="30" height="30" fill="#8ecae6" stroke="gray" stroke-width="1" /><text x="585" y="195" text-anchor="middle" dominant-baseline="middle" font-size="12">5</text><rect x="0" y="210" width="30" height="30" fill="#8ecae6" stroke="gray" stroke-width="1" /><text x="15" y="225" text-anchor="middle" dominant-baseline="middle" font-size="12">5</text><rect x="30" y="210" width="30" height="30" fill="#8ecae6" stroke="gray" stroke-width="1" /><text x="45" y="225" text-anchor="middle" dominant-baseline="middle" font-size="12">5</text><rect x="60" y="210" width="30" height="30" fill="#000000" stroke="gray" stroke-width="1" /><rect x="90" y="210" width="30" height="30" fill="#8ecae6" stroke="gray" stroke-width="1" /><text x="105" y="225" text-anchor="middle" dominant-baseline="middle" font-size="12">5</text><rect x="120" y="210" width="30" height="30" fill="#8ecae6" stroke="gray" stroke-width="1" /><text x="135" y="225" text-anchor="middle" dominant-baseline="middle" font-size="12">3</text><rect x="150" y="210" width="30" height="30" fill="#000000" stroke="gray" stroke-width="1" /><rect x="180" y="210" width="30" height="30" fill="#8ecae6" stroke="gray" stroke-width="1" /><text x="195" y="225" text-anchor="middle" dominant-baseline="middle" font-size="12">5</text><rect x="210" y="210" width="30" height="30" fill="#8ecae6" stroke="gray" stroke-width="1" /><text x="225" y="225" text-anchor="middle" dominant-baseline="middle" font-size="12">2</text><rect x="240" y="210" width="30" height="30" fill="#8ecae6" stroke="gray" stroke-width="1" /><text x="255" y="225" text-anchor="middle" dominant-baseline="middle" font-size="12">2</text><rect x="270" y="210" width="30" height="30" fill="#8ecae6" stroke="gray" stroke-width="1" /><text x="285" y="225" text-anchor="middle" dominant-baseline="middle" font-size="12">1</text><rect x="300" y="210" width="30" height="30" fill="#8ecae6" stroke="gray" stroke-width="1" /><text x="315" y="225" text-anchor="middle" dominant-baseline="middle" font-size="12">5</text><rect x="330" y="210" width="30" height="30" fill="#000000" stroke="gray" stroke-width="1" /><rect x="360" y="210" width="30" height="30" fill="#000000" stroke="gray" stroke-width="1" /><rect x="390" y="210" width="30" height="30" fill="#8ecae6" stroke="gray" stroke-width="1" /><text x="405" y="225" text-anchor="middle" dominant-baseline="middle" font-size="12">1</text><rect x="420" y="210" width="30" height="30" fill="#90db8b" stroke="gray" stroke-width="1" /><text x="435" y="225" text-anchor="middle" dominant-baseline="middle" font-size="12">5</text><rect x="450" y="210" width="30" height="30" fill="#90db8b" stroke="gray" stroke-width="1" /><text x="465" y="225" text-anchor="middle" dominant-baseline="middle" font-size="12">3</text><rect x="480" y="210" width="30" height="30" fill="#8ecae6" stroke="gray" stroke-width="1" /><text x="495" y="225" text-anchor="middle" dominant-baseline="middle" font-size="12">4</text><rect x="510" y="210" width="30" height="30" fill="#8ecae6" stroke="gray" stroke-width="1" /><text x="525" y="225" text-anchor="middle" dominant-baseline="middle" font-size="12">4</text><rect x="540" y="210" width="30" height="30" fill="#8ecae6" stroke="gray" stroke-width="1" /><text x="555" y="225" text-anchor="middle" dominant-baseline="middle" font-size="12">4</text><rect x="570" y="210" width="30" height="30" fill="#8ecae6" stroke="gray" stroke-width="1" /><text x="585" y="225" text-anchor="middle" dominant-baseline="middle" font-size="12">4</text><rect x="0" y="240" width="30" height="30" fill="#8ecae6" stroke="gray" stroke-width="1" /><text x="15" y="255" text-anchor="middle" dominant-baseline="middle" font-size="12">2</text><rect x="30" y="240" width="30" height="30" fill="#8ecae6" stroke="gray" stroke-width="1" /><text x="45" y="255" text-anchor="middle" dominant-baseline="middle" font-size="12">3</text><rect x="60" y="240" width="30" height="30" fill="#8ecae6" stroke="gray" stroke-width="1" /><text x="75" y="255" text-anchor="middle" dominant-baseline="middle" font-size="12">5</text><rect x="90" y="240" width="30" height="30" fill="#8ecae6" stroke="gray" stroke-width="1" /><text x="105" y="255" text-anchor="middle" dominant-baseline="middle" font-size="12">1</text><rect x="120" y="240" width="30" height="30" fill="#8ecae6" stroke="gray" stroke-width="1" /><text x="135" y="255" text-anchor="middle" dominant-baseline="middle" font-size="12">5</text><rect x="150" y="240" width="30" height="30" fill="#8ecae6" stroke="gray" stroke-width="1" /><text x="165" y="255" text-anchor="middle" dominant-baseline="middle" font-size="12">4</text><rect x="180" y="240" width="30" height="30" fill="#8ecae6" stroke="gray" stroke-width="1" /><text x="195" y="255" text-anchor="middle" dominant-baseline="middle" font-size="12">5</text><rect x="210" y="240" width="30" height="30" fill="#8ecae6" stroke="gray" stroke-width="1" /><text x="225" y="255" text-anchor="middle" dominant-baseline="middle" font-size="12">4</text><rect x="240" y="240" width="30" height="30" fill="#8ecae6" stroke="gray" stroke-width="1" /><text x="255" y="255" text-anchor="middle" dominant-baseline="middle" font-size="12">3</text><rect x="270" y="240" width="30" height="30" fill="#8ecae6" stroke="gray" stroke-width="1" /><text x="285" y="255" text-anchor="middle" dominant-baseline="middle" font-size="12">5</text><rect x="300" y="240" width="30" height="30" fill="#8ecae6" stroke="gray" stroke-width="1" /><text x="315" y="255" text-anchor="middle" dominant-baseline="middle" font-size="12">4</text><rect x="330" y="240" width="30" height="30" fill="#8ecae6" stroke="gray" stroke-width="1" /><text x="345" y="255" text-anchor="middle" dominant-baseline="middle" font-size="12">3</text><rect x="360" y="240" width="30" height="30" fill="#000000" stroke="gray" stroke-width="1" /><rect x="390" y="240" width="30" height="30" fill="#8ecae6" stroke="gray" stroke-width="1" /><text x="405" y="255" text-anchor="middle" dominant-baseline="middle" font-size="12">4</text><rect x="420" y="240" width="30" height="30" fill="#8ecae6" stroke="gray" stroke-width="1" /><text x="435" y="255" text-anchor="middle" dominant-baseline="middle" font-size="12">3</text><rect x="450" y="240" width="30" height="30" fill="#90db8b" stroke="gray" stroke-width="1" /><text x="465" y="255" text-anchor="middle" dominant-baseline="middle" font-size="12">4</text><rect x="480" y="240" width="30" height="30" fill="#8ecae6" stroke="gray" stroke-width="1" /><text x="495" y="255" text-anchor="middle" dominant-baseline="middle" font-size="12">4</text><rect x="510" y="240" width="30" height="30" fill="#8ecae6" stroke="gray" stroke-width="1" /><text x="525" y="255" text-anchor="middle" dominant-baseline="middle" font-size="12">2</text><rect x="540" y="240" width="30" height="30" fill="#000000" stroke="gray" stroke-width="1" /><rect x="570" y="240" width="30" height="30" fill="#8ecae6" stroke="gray" stroke-width="1" /><text x="585" y="255" text-anchor="middle" dominant-baseline="middle" font-size="12">4</text><rect x="0" y="270" width="30" height="30" fill="#8ecae6" stroke="gray" stroke-width="1" /><text x="15" y="285" text-anchor="middle" dominant-baseline="middle" font-size="12">1</text><rect x="30" y="270" width="30" height="30" fill="#000000" stroke="gray" stroke-width="1" /><rect x="60" y="270" width="30" height="30" fill="#8ecae6" stroke="gray" stroke-width="1" /><text x="75" y="285" text-anchor="middle" dominant-baseline="middle" font-size="12">2</text><rect x="90" y="270" width="30" height="30" fill="#000000" stroke="gray" stroke-width="1" /><rect x="120" y="270" width="30" height="30" fill="#8ecae6" stroke="gray" stroke-width="1" /><text x="135" y="285" text-anchor="middle" dominant-baseline="middle" font-size="12">1</text><rect x="150" y="270" width="30" height="30" fill="#8ecae6" stroke="gray" stroke-width="1" /><text x="165" y="285" text-anchor="middle" dominant-baseline="middle" font-size="12">4</text><rect x="180" y="270" width="30" height="30" fill="#8ecae6" stroke="gray" stroke-width="1" /><text x="195" y="285" text-anchor="middle" dominant-baseline="middle" font-size="12">2</text><rect x="210" y="270" width="30" height="30" fill="#8ecae6" stroke="gray" stroke-width="1" /><text x="225" y="285" text-anchor="middle" dominant-baseline="middle" font-size="12">1</text><rect x="240" y="270" width="30" height="30" fill="#8ecae6" stroke="gray" stroke-width="1" /><text x="255" y="285" text-anchor="middle" dominant-baseline="middle" font-size="12">5</text><rect x="270" y="270" width="30" height="30" fill="#8ecae6" stroke="gray" stroke-width="1" /><text x="285" y="285" text-anchor="middle" dominant-baseline="middle" font-size="12">3</text><rect x="300" y="270" width="30" height="30" fill="#8ecae6" stroke="gray" stroke-width="1" /><text x="315" y="285" text-anchor="middle" dominant-baseline="middle" font-size="12">3</text><rect x="330" y="270" width="30" height="30" fill="#000000" stroke="gray" stroke-width="1" /><rect x="360" y="270" width="30" height="30" fill="#8ecae6" stroke="gray" stroke-width="1" /><text x="375" y="285" text-anchor="middle" dominant-baseline="middle" font-size="12">5</text><rect x="390" y="270" width="30" height="30" fill="#8ecae6" stroke="gray" stroke-width="1" /><text x="405" y="285" text-anchor="middle" dominant-baseline="middle" font-size="12">4</text><rect x="420" y="270" width="30" height="30" fill="#8ecae6" stroke="gray" stroke-width="1" /><text x="435" y="285" text-anchor="middle" dominant-baseline="middle" font-size="12">5</text><rect x="450" y="270" width="30" height="30" fill="#90db8b" stroke="gray" stroke-width="1" /><text x="465" y="285" text-anchor="middle" dominant-baseline="middle" font-size="12">2</text><rect x="480" y="270" width="30" height="30" fill="#8ecae6" stroke="gray" stroke-width="1" /><text x="495" y="285" text-anchor="middle" dominant-baseline="middle" font-size="12">3</text><rect x="510" y="270" width="30" height="30" fill="#000000" stroke="gray" stroke-width="1" /><rect x="540" y="270" width="30" height="30" fill="#8ecae6" stroke="gray" stroke-width="1" /><text x="555" y="285" text-anchor="middle" dominant-baseline="middle" font-size="12">3</text><rect x="570" y="270" width="30" height="30" fill="#000000" stroke="gray" stroke-width="1" /><rect x="0" y="300" width="30" height="30" fill="#8ecae6" stroke="gray" stroke-width="1" /><text x="15" y="315" text-anchor="middle" dominant-baseline="middle" font-size="12">1</text><rect x="30" y="300" width="30" height="30" fill="#8ecae6" stroke="gray" stroke-width="1" /><text x="45" y="315" text-anchor="middle" dominant-baseline="middle" font-size="12">3</text><rect x="60" y="300" width="30" height="30" fill="#8ecae6" stroke="gray" stroke-width="1" /><text x="75" y="315" text-anchor="middle" dominant-baseline="middle" font-size="12">1</text><rect x="90" y="300" width="30" height="30" fill="#8ecae6" stroke="gray" stroke-width="1" /><text x="105" y="315" text-anchor="middle" dominant-baseline="middle" font-size="12">2</text><rect x="120" y="300" width="30" height="30" fill="#000000" stroke="gray" stroke-width="1" /><rect x="150" y="300" width="30" height="30" fill="#8ecae6" stroke="gray" stroke-width="1" /><text x="165" y="315" text-anchor="middle" dominant-baseline="middle" font-size="12">2</text><rect x="180" y="300" width="30" height="30" fill="#000000" stroke="gray" stroke-width="1" /><rect x="210" y="300" width="30" height="30" fill="#8ecae6" stroke="gray" stroke-width="1" /><text x="225" y="315" text-anchor="middle" dominant-baseline="middle" font-size="12">4</text><rect x="240" y="300" width="30" height="30" fill="#8ecae6" stroke="gray" stroke-width="1" /><text x="255" y="315" text-anchor="middle" dominant-baseline="middle" font-size="12">3</text><rect x="270" y="300" width="30" height="30" fill="#000000" stroke="gray" stroke-width="1" /><rect x="300" y="300" width="30" height="30" fill="#8ecae6" stroke="gray" stroke-width="1" /><text x="315" y="315" text-anchor="middle" dominant-baseline="middle" font-size="12">2</text><rect x="330" y="300" width="30" height="30" fill="#8ecae6" stroke="gray" stroke-width="1" /><text x="345" y="315" text-anchor="middle" dominant-baseline="middle" font-size="12">2</text><rect x="360" y="300" width="30" height="30" fill="#8ecae6" stroke="gray" stroke-width="1" /><text x="375" y="315" text-anchor="middle" dominant-baseline="middle" font-size="12">1</text><rect x="390" y="300" width="30" height="30" fill="#8ecae6" stroke="gray" stroke-width="1" /><text x="405" y="315" text-anchor="middle" dominant-baseline="middle" font-size="12">5</text><rect x="420" y="300" width="30" height="30" fill="#000000" stroke="gray" stroke-width="1" /><rect x="450" y="300" width="30" height="30" fill="#90db8b" stroke="gray" stroke-width="1" /><text x="465" y="315" text-anchor="middle" dominant-baseline="middle" font-size="12">1</text><rect x="480" y="300" width="30" height="30" fill="#90db8b" stroke="gray" stroke-width="1" /><text x="495" y="315" text-anchor="middle" dominant-baseline="middle" font-size="12">3</text><rect x="510" y="300" width="30" height="30" fill="#8ecae6" stroke="gray" stroke-width="1" /><text x="525" y="315" text-anchor="middle" dominant-baseline="middle" font-size="12">4</text><rect x="540" y="300" width="30" height="30" fill="#8ecae6" stroke="gray" stroke-width="1" /><text x="555" y="315" text-anchor="middle" dominant-baseline="middle" font-size="12">4</text><rect x="570" y="300" width="30" height="30" fill="#000000" stroke="gray" stroke-width="1" /><rect x="0" y="330" width="30" height="30" fill="#000000" stroke="gray" stroke-width="1" /><rect x="30" y="330" width="30" height="30" fill="#8ecae6" stroke="gray" stroke-width="1" /><text x="45" y="345" text-anchor="middle" dominant-baseline="middle" font-size="12">2</text><rect x="60" y="330" width="30" height="30" fill="#000000" stroke="gray" stroke-width="1" /><rect x="90" y="330" width="30" height="30" fill="#8ecae6" stroke="gray" stroke-width="1" /><text x="105" y="345" text-anchor="middle" dominant-baseline="middle" font-size="12">2</text><rect x="120" y="330" width="30" height="30" fill="#8ecae6" stroke="gray" stroke-width="1" /><text x="135" y="345" text-anchor="middle" dominant-baseline="middle" font-size="12">2</text><rect x="150" y="330" width="30" height="30" fill="#8ecae6" stroke="gray" stroke-width="1" /><text x="165" y="345" text-anchor="middle" dominant-baseline="middle" font-size="12">1</text><rect x="180" y="330" width="30" height="30" fill="#000000" stroke="gray" stroke-width="1" /><rect x="210" y="330" width="30" height="30" fill="#8ecae6" stroke="gray" stroke-width="1" /><text x="225" y="345" text-anchor="middle" dominant-baseline="middle" font-size="12">1</text><rect x="240" y="330" width="30" height="30" fill="#8ecae6" stroke="gray" stroke-width="1" /><text x="255" y="345" text-anchor="middle" dominant-baseline="middle" font-size="12">5</text><rect x="270" y="330" width="30" height="30" fill="#000000" stroke="gray" stroke-width="1" /><rect x="300" y="330" width="30" height="30" fill="#000000" stroke="gray" stroke-width="1" /><rect x="330" y="330" width="30" height="30" fill="#8ecae6" stroke="gray" stroke-width="1" /><text x="345" y="345" text-anchor="middle" dominant-baseline="middle" font-size="12">3</text><rect x="360" y="330" width="30" height="30" fill="#8ecae6" stroke="gray" stroke-width="1" /><text x="375" y="345" text-anchor="middle" dominant-baseline="middle" font-size="12">2</text><rect x="390" y="330" width="30" height="30" fill="#8ecae6" stroke="gray" stroke-width="1" /><text x="405" y="345" text-anchor="middle" dominant-baseline="middle" font-size="12">4</text><rect x="420" y="330" width="30" height="30" fill="#000000" stroke="gray" stroke-width="1" /><rect x="450" y="330" width="30" height="30" fill="#000000" stroke="gray" stroke-width="1" /><rect x="480" y="330" width="30" height="30" fill="#90db8b" stroke="gray" stroke-width="1" /><text x="495" y="345" text-anchor="middle" dominant-baseline="middle" font-size="12">3</text><rect x="510" y="330" width="30" height="30" fill="#8ecae6" stroke="gray" stroke-width="1" /><text x="525" y="345" text-anchor="middle" dominant-baseline="middle" font-size="12">4</text><rect x="540" y="330" width="30" height="30" fill="#8ecae6" stroke="gray" stroke-width="1" /><text x="555" y="345" text-anchor="middle" dominant-baseline="middle" font-size="12">1</text><rect x="570" y="330" width="30" height="30" fill="#8ecae6" stroke="gray" stroke-width="1" /><text x="585" y="345" text-anchor="middle" dominant-baseline="middle" font-size="12">3</text><rect x="0" y="360" width="30" height="30" fill="#8ecae6" stroke="gray" stroke-width="1" /><text x="15" y="375" text-anchor="middle" dominant-baseline="middle" font-size="12">2</text><rect x="30" y="360" width="30" height="30" fill="#000000" stroke="gray" stroke-width="1" /><rect x="60" y="360" width="30" height="30" fill="#8ecae6" stroke="gray" stroke-width="1" /><text x="75" y="375" text-anchor="middle" dominant-baseline="middle" font-size="12">3</text><rect x="90" y="360" width="30" height="30" fill="#8ecae6" stroke="gray" stroke-width="1" /><text x="105" y="375" text-anchor="middle" dominant-baseline="middle" font-size="12">1</text><rect x="120" y="360" width="30" height="30" fill="#8ecae6" stroke="gray" stroke-width="1" /><text x="135" y="375" text-anchor="middle" dominant-baseline="middle" font-size="12">5</text><rect x="150" y="360" width="30" height="30" fill="#8ecae6" stroke="gray" stroke-width="1" /><text x="165" y="375" text-anchor="middle" dominant-baseline="middle" font-size="12">3</text><rect x="180" y="360" width="30" height="30" fill="#8ecae6" stroke="gray" stroke-width="1" /><text x="195" y="375" text-anchor="middle" dominant-baseline="middle" font-size="12">5</text><rect x="210" y="360" width="30" height="30" fill="#000000" stroke="gray" stroke-width="1" /><rect x="240" y="360" width="30" height="30" fill="#8ecae6" stroke="gray" stroke-width="1" /><text x="255" y="375" text-anchor="middle" dominant-baseline="middle" font-size="12">4</text><rect x="270" y="360" width="30" height="30" fill="#8ecae6" stroke="gray" stroke-width="1" /><text x="285" y="375" text-anchor="middle" dominant-baseline="middle" font-size="12">1</text><rect x="300" y="360" width="30" height="30" fill="#8ecae6" stroke="gray" stroke-width="1" /><text x="315" y="375" text-anchor="middle" dominant-baseline="middle" font-size="12">1</text><rect x="330" y="360" width="30" height="30" fill="#8ecae6" stroke="gray" stroke-width="1" /><text x="345" y="375" text-anchor="middle" dominant-baseline="middle" font-size="12">5</text><rect x="360" y="360" width="30" height="30" fill="#8ecae6" stroke="gray" stroke-width="1" /><text x="375" y="375" text-anchor="middle" dominant-baseline="middle" font-size="12">4</text><rect x="390" y="360" width="30" height="30" fill="#8ecae6" stroke="gray" stroke-width="1" /><text x="405" y="375" text-anchor="middle" dominant-baseline="middle" font-size="12">5</text><rect x="420" y="360" width="30" height="30" fill="#000000" stroke="gray" stroke-width="1" /><rect x="450" y="360" width="30" height="30" fill="#000000" stroke="gray" stroke-width="1" /><rect x="480" y="360" width="30" height="30" fill="#90db8b" stroke="gray" stroke-width="1" /><text x="495" y="375" text-anchor="middle" dominant-baseline="middle" font-size="12">1</text><rect x="510" y="360" width="30" height="30" fill="#90db8b" stroke="gray" stroke-width="1" /><text x="525" y="375" text-anchor="middle" dominant-baseline="middle" font-size="12">5</text><rect x="540" y="360" width="30" height="30" fill="#8ecae6" stroke="gray" stroke-width="1" /><text x="555" y="375" text-anchor="middle" dominant-baseline="middle" font-size="12">2</text><rect x="570" y="360" width="30" height="30" fill="#000000" stroke="gray" stroke-width="1" /><rect x="0" y="390" width="30" height="30" fill="#8ecae6" stroke="gray" stroke-width="1" /><text x="15" y="405" text-anchor="middle" dominant-baseline="middle" font-size="12">5</text><rect x="30" y="390" width="30" height="30" fill="#8ecae6" stroke="gray" stroke-width="1" /><text x="45" y="405" text-anchor="middle" dominant-baseline="middle" font-size="12">2</text><rect x="60" y="390" width="30" height="30" fill="#000000" stroke="gray" stroke-width="1" /><rect x="90" y="390" width="30" height="30" fill="#8ecae6" stroke="gray" stroke-width="1" /><text x="105" y="405" text-anchor="middle" dominant-baseline="middle" font-size="12">5</text><rect x="120" y="390" width="30" height="30" fill="#8ecae6" stroke="gray" stroke-width="1" /><text x="135" y="405" text-anchor="middle" dominant-baseline="middle" font-size="12">5</text><rect x="150" y="390" width="30" height="30" fill="#8ecae6" stroke="gray" stroke-width="1" /><text x="165" y="405" text-anchor="middle" dominant-baseline="middle" font-size="12">1</text><rect x="180" y="390" width="30" height="30" fill="#000000" stroke="gray" stroke-width="1" /><rect x="210" y="390" width="30" height="30" fill="#8ecae6" stroke="gray" stroke-width="1" /><text x="225" y="405" text-anchor="middle" dominant-baseline="middle" font-size="12">1</text><rect x="240" y="390" width="30" height="30" fill="#8ecae6" stroke="gray" stroke-width="1" /><text x="255" y="405" text-anchor="middle" dominant-baseline="middle" font-size="12">1</text><rect x="270" y="390" width="30" height="30" fill="#8ecae6" stroke="gray" stroke-width="1" /><text x="285" y="405" text-anchor="middle" dominant-baseline="middle" font-size="12">1</text><rect x="300" y="390" width="30" height="30" fill="#000000" stroke="gray" stroke-width="1" /><rect x="330" y="390" width="30" height="30" fill="#8ecae6" stroke="gray" stroke-width="1" /><text x="345" y="405" text-anchor="middle" dominant-baseline="middle" font-size="12">1</text><rect x="360" y="390" width="30" height="30" fill="#8ecae6" stroke="gray" stroke-width="1" /><text x="375" y="405" text-anchor="middle" dominant-baseline="middle" font-size="12">3</text><rect x="390" y="390" width="30" height="30" fill="#8ecae6" stroke="gray" stroke-width="1" /><text x="405" y="405" text-anchor="middle" dominant-baseline="middle" font-size="12">4</text><rect x="420" y="390" width="30" height="30" fill="#000000" stroke="gray" stroke-width="1" /><rect x="450" y="390" width="30" height="30" fill="#ffffff" stroke="gray" stroke-width="1" /><text x="465" y="405" text-anchor="middle" dominant-baseline="middle" font-size="12">2</text><rect x="480" y="390" width="30" height="30" fill="#000000" stroke="gray" stroke-width="1" /><rect x="510" y="390" width="30" height="30" fill="#90db8b" stroke="gray" stroke-width="1" /><text x="525" y="405" text-anchor="middle" dominant-baseline="middle" font-size="12">2</text><rect x="540" y="390" width="30" height="30" fill="#000000" stroke="gray" stroke-width="1" /><rect x="570" y="390" width="30" height="30" fill="#ffffff" stroke="gray" stroke-width="1" /><text x="585" y="405" text-anchor="middle" dominant-baseline="middle" font-size="12">5</text><rect x="0" y="420" width="30" height="30" fill="#8ecae6" stroke="gray" stroke-width="1" /><text x="15" y="435" text-anchor="middle" dominant-baseline="middle" font-size="12">2</text><rect x="30" y="420" width="30" height="30" fill="#8ecae6" stroke="gray" stroke-width="1" /><text x="45" y="435" text-anchor="middle" dominant-baseline="middle" font-size="12">3</text><rect x="60" y="420" width="30" height="30" fill="#8ecae6" stroke="gray" stroke-width="1" /><text x="75" y="435" text-anchor="middle" dominant-baseline="middle" font-size="12">4</text><rect x="90" y="420" width="30" height="30" fill="#8ecae6" stroke="gray" stroke-width="1" /><text x="105" y="435" text-anchor="middle" dominant-baseline="middle" font-size="12">5</text><rect x="120" y="420" width="30" height="30" fill="#8ecae6" stroke="gray" stroke-width="1" /><text x="135" y="435" text-anchor="middle" dominant-baseline="middle" font-size="12">2</text><rect x="150" y="420" width="30" height="30" fill="#8ecae6" stroke="gray" stroke-width="1" /><text x="165" y="435" text-anchor="middle" dominant-baseline="middle" font-size="12">5</text><rect x="180" y="420" width="30" height="30" fill="#8ecae6" stroke="gray" stroke-width="1" /><text x="195" y="435" text-anchor="middle" dominant-baseline="middle" font-size="12">3</text><rect x="210" y="420" width="30" height="30" fill="#8ecae6" stroke="gray" stroke-width="1" /><text x="225" y="435" text-anchor="middle" dominant-baseline="middle" font-size="12">2</text><rect x="240" y="420" width="30" height="30" fill="#8ecae6" stroke="gray" stroke-width="1" /><text x="255" y="435" text-anchor="middle" dominant-baseline="middle" font-size="12">3</text><rect x="270" y="420" width="30" height="30" fill="#8ecae6" stroke="gray" stroke-width="1" /><text x="285" y="435" text-anchor="middle" dominant-baseline="middle" font-size="12">2</text><rect x="300" y="420" width="30" height="30" fill="#8ecae6" stroke="gray" stroke-width="1" /><text x="315" y="435" text-anchor="middle" dominant-baseline="middle" font-size="12">2</text><rect x="330" y="420" width="30" height="30" fill="#8ecae6" stroke="gray" stroke-width="1" /><text x="345" y="435" text-anchor="middle" dominant-baseline="middle" font-size="12">4</text><rect x="360" y="420" width="30" height="30" fill="#8ecae6" stroke="gray" stroke-width="1" /><text x="375" y="435" text-anchor="middle" dominant-baseline="middle" font-size="12">3</text><rect x="390" y="420" width="30" height="30" fill="#8ecae6" stroke="gray" stroke-width="1" /><text x="405" y="435" text-anchor="middle" dominant-baseline="middle" font-size="12">3</text><rect x="420" y="420" width="30" height="30" fill="#8ecae6" stroke="gray" stroke-width="1" /><text x="435" y="435" text-anchor="middle" dominant-baseline="middle" font-size="12">3</text><rect x="450" y="420" width="30" height="30" fill="#000000" stroke="gray" stroke-width="1" /><rect x="480" y="420" width="30" height="30" fill="#8ecae6" stroke="gray" stroke-width="1" /><text x="495" y="435" text-anchor="middle" dominant-baseline="middle" font-size="12">3</text><rect x="510" y="420" width="30" height="30" fill="#90db8b" stroke="gray" stroke-width="1" /><text x="525" y="435" text-anchor="middle" dominant-baseline="middle" font-size="12">4</text><rect x="540" y="420" width="30" height="30" fill="#90db8b" stroke="gray" stroke-width="1" /><text x="555" y="435" text-anchor="middle" dominant-baseline="middle" font-size="12">2</text><rect x="570" y="420" width="30" height="30" fill="#90db8b" stroke="gray" stroke-width="1" /><text x="585" y="435" text-anchor="middle" dominant-baseline="middle" font-size="12">5</text></svg>