<svg xmlns="http://www.w3.org/2000/svg" width="1920" height="1080" viewBox="0 0 1920 1080"><line x1="295.353816154441" y1="238.739879157793" x2="1440.037114655932" y2="718.1032632368547" stroke="red" stroke-width="3" /><line x1="295.353816154441" y1="238.739879157793" x2="679.8491397634773" y2="375.39358910992934" stroke="#999" stroke-width="1" /><line x1="295.353816154441" y1="238.739879157793" x2="672.1712164988525" y2="406.2115723887742" stroke="#999" stroke-width="1" /><line x1="295.353816154441" y1="238.739879157793" x2="744.0237676499971" y2="844.9576262813763" stroke="#999" stroke-width="1" /><line x1="295.353816154441" y1="238.739879157793" x2="828.0348729257385" y2="884.4635204078974" stroke="#999" stroke-width="1" /><line x1="295.353816154441" y1="238.739879157793" x2="326.20964812875627" y2="157.3696617968376" stroke="#999" stroke-width="1" /><line x1="1440.037114655932" y1="718.1032632368547" x2="295.353816154441" y2="238.739879157793" stroke="#999" stroke-width="1" /><line x1="1440.037114655932" y1="718.1032632368547" x2="679.8491397634773" y2="375.39358910992934" stroke="#999" stroke-width="1" /><line x1="1440.037114655932" y1="718.1032632368547" x2="1036.2186550176912" y2="630.192069758456" stroke="red" stroke-width="3" /><line x1="1440.037114655932" y1="718.1032632368547" x2="744.0237676499971" y2="844.9576262813763" stroke="#999" stroke-width="1" /><line x1="1440.037114655932" y1="718.1032632368547" x2="1662.4980759766704" y2="705.9239750023607" stroke="#999" stroke-width="1" /><line x1="1440.037114655932" y1="718.1032632368547" x2="948.004360545053" y2="576.5036176915105" stroke="#999" stroke-width="1" /><line x1="1440.037114655932" y1="718.1032632368547" x2="326.20964812875627" y2="157.3696617968376" stroke="#999" stroke-width="1" /><line x1="679.8491397634773" y1="375.39358910992934" x2="295.353816154441" y2="238.739879157793" stroke="#999" stroke-width="1" /><line x1="679.8491397634773" y1="375.39358910992934" x2="1440.037114655932" y2="718.1032632368547" stroke="#999" stroke-width="1" /><line x1="679.8491397634773" y1="375.39358910992934" x2="672.1712164988525" y2="406.2115723887742" stroke="#999" stroke-width="1" /><line x1="679.8491397634773" y1="375.39358910992934" x2="744.0237676499971" y2="844.9576262813763" stroke="#999" stroke-width="1" /><line x1="679.8491397634773" y1="375.39358910992934" x2="1662.4980759766704" y2="705.9239750023607" stroke="#999" stroke-width="1" /><line x1="679.8491397634773" y1="375.39358910992934" x2="828.0348729257385" y2="884.4635204078974" stroke="#999" stroke-width="1" /><line x1="679.8491397634773" y1="375.39358910992934" x2="326.20964812875627" y2="157.3696617968376" stroke="#999" stroke-width="1" /><line x1="679.8491397634773" y1="375.39358910992934" x2="1129.5626759461602" y2="851.3120826372499" stroke="#999" stroke-width="1" /><line x1="546.1530200594557" y1="668.2394162436146" x2="828.0348729257385" y2="884.4635204078974" stroke="#999" stroke-width="1" /><line x1="546.1530200594557" y1="668.2394162436146" x2="326.20964812875627" y2="157.3696617968376" stroke="#999" stroke-width="1" /><line x1="672.1712164988525" y1="406.2115723887742" x2="295.353816154441" y2="238.739879157793" stroke="#999" stroke-width="1" /><line x1="672.1712164988525" y1="406.2115723887742" x2="679.8491397634773" y2="375.39358910992934" stroke="#999" stroke-width="1" /><line x1="672.1712164988525" y1="406.2115723887742" x2="744.0237676499971" y2="844.9576262813763" stroke="#999" stroke-width="1" /><line x1="672.1712164988525" y1="406.2115723887742" x2="1129.5626759461602" y2="851.3120826372499" stroke="#999" stroke-width="1" /><line x1="1036.2186550176912" y1="630.192069758456" x2="1440.037114655932" y2="718.1032632368547" stroke="#999" stroke-width="1" /><line x1="1036.2186550176912" y1="630.192069758456" x2="948.004360545053" y2="576.5036176915105" stroke="#999" stroke-width="1" /><line x1="1036.2186550176912" y1="630.192069758456" x2="326.20964812875627" y2="157.3696617968376" stroke="#999" stroke-width="1" /><line x1="1036.2186550176912" y1="630.192069758456" x2="1129.5626759461602" y2="851.3120826372499" stroke="#999" stroke-width="1" /><line x1="744.0237676499971" y1="844.9576262813763" x2="295.353816154441" y2="238.739879157793" stroke="#999" stroke-width="1" /><line x1="744.0237676499971" y1="844.9576262813763" x2="1440.037114655932" y2="718.1032632368547" stroke="#999" stroke-width="1" /><line x1="744.0237676499971" y1="844.9576262813763" x2="679.8491397634773" y2="375.39358910992934" stroke="#999" stroke-width="1" /><line x1="744.0237676499971" y1="844.9576262813763" x2="672.1712164988525" y2="406.2115723887742" stroke="#999" stroke-width="1" /><line x1="744.0237676499971" y1="844.9576262813763" x2="948.004360545053" y2="576.5036176915105" stroke="#999" stroke-width="1" /><line x1="744.0237676499971" y1="844.9576262813763" x2="326.20964812875627" y2="157.3696617968376" stroke="#999" stroke-width="1" /><line x1="1662.4980759766704" y1="705.9239750023607" x2="1440.037114655932" y2="718.1032632368547" stroke="#999" stroke-width="1" /><line x1="1662.4980759766704" y1="705.9239750023607" x2="679.8491397634773" y2="375.39358910992934" stroke="#999" stroke-width="1" /><line x1="1662.4980759766704" y1="705.9239750023607" x2="326.20964812875627" y2="157.3696617968376" stroke="#999" stroke-width="1" /><line x1="1662.4980759766704" y1="705.9239750023607" x2="1129.5626759461602" y2="851.3120826372499" stroke="#999" stroke-width="1" /><line x1="828.0348729257385" y1="884.4635204078974" x2="295.353816154441" y2="238.739879157793" stroke="#999" stroke-width="1" /><line x1="828.0348729257385" y1="884.4635204078974" x2="679.8491397634773" y2="375.39358910992934" stroke="#999" stroke-width="1" /><line x1="828.0348729257385" y1="884.4635204078974" x2="546.1530200594557" y2="668.2394162436146" stroke="#999" stroke-width="1" /><line x1="948.004360545053" y1="576.5036176915105" x2="1440.037114655932" y2="718.1032632368547" stroke="#999" stroke-width="1" /><line x1="948.004360545053" y1="576.5036176915105" x2="1036.2186550176912" y2="630.192069758456" stroke="#999" stroke-width="1" /><line x1="948.004360545053" y1="576.5036176915105" x2="744.0237676499971" y2="844.9576262813763" stroke="#999" stroke-width="1" /><line x1="948.004360545053" y1="576.5036176915105" x2="326.20964812875627" y2="157.3696617968376" stroke="#999" stroke-width="1" /><line x1="948.004360545053" y1="576.5036176915105" x2="1129.5626759461602" y2="851.3120826372499" stroke="#999" stroke-width="1" /><line x1="326.20964812875627" y1="157.3696617968376" x2="295.353816154441" y2="238.739879157793" stroke="#999" stroke-width="1" /><line x1="326.20964812875627" y1="157.3696617968376" x2="1440.037114655932" y2="718.1032632368547" stroke="#999" stroke-width="1" /><line x1="326.20964812875627" y1="157.3696617968376" x2="679.8491397634773" y2="375.39358910992934" stroke="#999" stroke-width="1" /><line x1="326.20964812875627" y1="157.3696617968376" x2="546.1530200594557" y2="668.2394162436146" stroke="#999" stroke-width="1" /><line x1="326.20964812875627" y1="157.3696617968376" x2="1036.2186550176912" y2="630.192069758456" stroke="#999" stroke-width="1" /><line x1="326.20964812875627" y1="157.3696617968376" x2="744.0237676499971" y2="844.9576262813763" stroke="#999" stroke-width="1" /><line x1="326.20964812875627" y1="157.3696617968376" x2="1662.4980759766704" y2="705.9239750023607" stroke="#999" stroke-width="1" /><line x1="326.20964812875627" y1="157.3696617968376" x2="948.004360545053" y2="576.5036176915105" stroke="#999" stroke-width="1" /><line x1="326.20964812875627" y1="157.3696617968376" x2="1129.5626759461602" y2="851.3120826372499" stroke="#999" stroke-width="1" /><line x1="1129.5626759461602" y1="851.3120826372499" x2="679.8491397634773" y2="375.39358910992934" stroke="#999" stroke-width="1" /><line x1="1129.5626759461602" y1="851.3120826372499" x2="672.1712164988525" y2="406.2115723887742" stroke="#999" stroke-width="1" /><line x1="1129.5626759461602" y1="851.3120826372499" x2="1036.2186550176912" y2="630.192069758456" stroke="#999" stroke-width="1" /><line x1="1129.5626759461602" y1="851.3120826372499" x2="1662.4980759766704" y2="705.9239750023607" stroke="#999" stroke-width="1" /><line x1="1129.5626759461602" y1="851.3120826372499" x2="948.004360545053" y2="576.5036176915105" stroke="#999" stroke-width="1" /><line x1="1129.5626759461602" y1="851.3120826372499" x2="326.20964812875627" y2="157.3696617968376" stroke="#999" stroke-width="1" /><circle cx="295.353816154441" cy="238.739879157793" r="20" fill="#8ecae6" stroke="black" stroke-width="2" /><text x="295.353816154441" y="238.739879157793" text-anchor="middle" dominant-baseline="middle" font-size="14">N0</text><circle cx="1440.037114655932" cy="718.1032632368547" r="20" fill="#8ecae6" stroke="black" stroke-width="2" /><text x="1440.037114655932" y="718.1032632368547" text-anchor="middle" dominant-baseline="middle" font-size="14">N1</text><circle cx="679.8491397634773" cy="375.39358910992934" r="20" fill="#8ecae6" stroke="black" stroke-width="2" /><text x="679.8491397634773" y="375.39358910992934" text-anchor="middle" dominant-baseline="middle" font-size="14">N2</text><circle cx="546.1530200594557" cy="668.2394162436146" r="20" fill="#eeeeee" stroke="black" stroke-width="2" /><text x="546.1530200594557" y="668.2394162436146" text-anchor="middle" dominant-baseline="middle" font-size="14">N3</text><circle cx="672.1712164988525" cy="406.2115723887742" r="20" fill="#8ecae6" stroke="black" stroke-width="2" /><text x="672.1712164988525" y="406.2115723887742" text-anchor="middle" dominant-baseline="middle" font-size="14">N4</text><circle cx="1036.2186550176912" cy="630.192069758456" r="20" fill="#8ecae6" stroke="black" stroke-width="2" /><text x="1036.2186550176912" y="630.192069758456" text-anchor="middle" dominant-baseline="middle" font-size="14">N5</text><circle cx="744.0237676499971" cy="844.9576262813763" r="20" fill="#8ecae6" stroke="black" stroke-width="2" /><text x="744.0237676499971" y="844.9576262813763" text-anchor="middle" dominant-baseline="middle" font-size="14">N6</text><circle cx="1662.4980759766704" cy="705.9239750023607" r="20" fill="#eeeeee" stroke="black" stroke-width="2" /><text x="1662.4980759766704" y="705.9239750023607" text-anchor="middle" dominant-baseline="middle" font-size="14">N7</text><circle cx="828.0348729257385" cy="884.4635204078974" r="20" fill="#8ecae6" stroke="black" stroke-width="2" /><text x="828.0348729257385" y="884.4635204078974" text-anchor="middle" dominant-baseline="middle" font-size="14">N8</text><circle cx="948.004360545053" cy="576.5036176915105" r="20" fill="#eeeeee" stroke="black" stroke-width="2" /><text x="948.004360545053" y="576.5036176915105" text-anchor="middle" dominant-baseline="middle" font-size="14">N9</text><circle cx="326.20964812875627" cy="157.3696617968376" r="20" fill="#8ecae6" stroke="black" stroke-width="2" /><text x="326.20964812875627" y="157.3696617968376" text-anchor="middle" dominant-baseline="middle" font-size="14">N10</text><circle cx="1129.5626759461602" cy="851.3120826372499" r="20" fill="#eeeeee" stroke="black" stroke-width="2" /><text x="1129.5626759461602" y="851.3120826372499" text-anchor="middle" dominant-baseline="middle" font-size="14">N11</text></svg>