<svg xmlns="http://www.w3.org/2000/svg" width="1920" height="1080" viewBox="0 0 1920 1080"><line x1="654.1097251342663" y1="122.48502792720932" x2="300.5400462183069" y2="261.8561471955968" stroke="#999" stroke-width="1" /><text x="477.3248856762866" y="187.17058756140307" font-size="12" fill="red" text-anchor="middle">2.0</text><line x1="654.1097251342663" y1="122.48502792720932" x2="672.9093512381974" y2="300.59095712619825" stroke="#999" stroke-width="1" /><text x="663.5095381862318" y="206.5379925267038" font-size="12" fill="red" text-anchor="middle">5.0</text><line x1="654.1097251342663" y1="122.48502792720932" x2="574.5670103146687" y2="203.59530786478763" stroke="red" stroke-width="3" /><text x="614.3383677244675" y="158.04016789599848" font-size="12" fill="red" text-anchor="middle">4.0</text><line x1="300.5400462183069" y1="261.8561471955968" x2="654.1097251342663" y2="122.48502792720932" stroke="#999" stroke-width="1" /><text x="477.3248856762866" y="187.17058756140307" font-size="12" fill="red" text-anchor="middle">2.0</text><line x1="300.5400462183069" y1="261.8561471955968" x2="574.5670103146687" y2="203.59530786478763" stroke="#999" stroke-width="1" /><text x="437.5535282664878" y="227.72572753019222" font-size="12" fill="red" text-anchor="middle">2.0</text><line x1="672.9093512381974" y1="300.59095712619825" x2="654.1097251342663" y2="122.48502792720932" stroke="#999" stroke-width="1" /><text x="663.5095381862318" y="206.5379925267038" font-size="12" fill="red" text-anchor="middle">5.0</text><line x1="672.9093512381974" y1="300.59095712619825" x2="574.5670103146687" y2="203.59530786478763" stroke="#999" stroke-width="1" /><text x="623.738180776433" y="247.09313249549294" font-size="12" fill="red" text-anchor="middle">1.0</text><line x1="574.5670103146687" y1="203.59530786478763" x2="654.1097251342663" y2="122.48502792720932" stroke="#999" stroke-width="1" /><text x="614.3383677244675" y="158.04016789599848" font-size="12" fill="red" text-anchor="middle">4.0</text><line x1="574.5670103146687" y1="203.59530786478763" x2="300.5400462183069" y2="261.8561471955968" stroke="#999" stroke-width="1" /><text x="437.5535282664878" y="227.72572753019222" font-size="12" fill="red" text-anchor="middle">2.0</text><line x1="574.5670103146687" y1="203.59530786478763" x2="672.9093512381974" y2="300.59095712619825" stroke="#999" stroke-width="1" /><text x="623.738180776433" y="247.09313249549294" font-size="12" fill="red" text-anchor="middle">1.0</text><line x1="574.5670103146687" y1="203.59530786478763" x2="443.4490590579094" y2="326.6121191839881" stroke="red" stroke-width="3" /><text x="509.008034686289" y="260.1037135243879" font-size="12" fill="red" text-anchor="middle">5.0</text><line x1="443.4490590579094" y1="326.6121191839881" x2="574.5670103146687" y2="203.59530786478763" stroke="#999" stroke-width="1" /><text x="509.008034686289" y="260.1037135243879" font-size="12" fill="red" text-anchor="middle">5.0</text><circle cx="654.1097251342663" cy="122.48502792720932" r="20" fill="#90db8b" stroke="black" stroke-width="2" /><text x="654.1097251342663" y="122.48502792720932" text-anchor="middle" dominant-baseline="middle" font-size="14">N0</text><circle cx="300.5400462183069" cy="261.8561471955968" r="20" fill="#eeeeee" stroke="black" stroke-width="2" /><text x="300.5400462183069" y="261.8561471955968" text-anchor="middle" dominant-baseline="middle" font-size="14">N1</text><circle cx="512.6607731666164" cy="390.28639250251155" r="20" fill="#eeeeee" stroke="black" stroke-width="2" /><text x="512.6607731666164" y="390.28639250251155" text-anchor="middle" dominant-baseline="middle" font-size="14">N2</text><circle cx="672.9093512381974" cy="300.59095712619825" r="20" fill="#eeeeee" stroke="black" stroke-width="2" /><text x="672.9093512381974" y="300.59095712619825" text-anchor="middle" dominant-baseline="middle" font-size="14">N3</text><circle cx="574.5670103146687" cy="203.59530786478763" r="20" fill="#90db8b" stroke="black" stroke-width="2" /><text x="574.5670103146687" y="203.59530786478763" text-anchor="middle" dominant-baseline="middle" font-size="14">N4</text><circle cx="443.4490590579094" cy="326.6121191839881" r="20" fill="#90db8b" stroke="black" stroke-width="2" /><text x="443.4490590579094" y="326.6121191839881" text-anchor="middle" dominant-baseline="middle" font-size="14">N5</text></svg>